<svg width="22" height="22" viewBox="0 0 22 22" fill="none" xmlns="http://www.w3.org/2000/svg">
<g clip-path="url(#clip0_97_65)">
<path d="M20.1667 11C20.1667 16.0626 16.0626 20.1667 11 20.1667M20.1667 11C20.1667 5.9374 16.0626 1.83334 11 1.83334M20.1667 11H1.83333M11 20.1667C5.93739 20.1667 1.83333 16.0626 1.83333 11M11 20.1667C13.2928 17.6565 14.5959 14.399 14.6667 11C14.5959 7.60104 13.2928 4.3435 11 1.83334M11 20.1667C8.70716 17.6565 7.40414 14.399 7.33333 11C7.40414 7.60104 8.70716 4.3435 11 1.83334M1.83333 11C1.83333 5.9374 5.93739 1.83334 11 1.83334" stroke="#2879FD" stroke-opacity="0.73" stroke-width="2" stroke-linecap="round" stroke-linejoin="round"/>
</g>
<defs>
<clipPath id="clip0_97_65">
<rect width="22" height="22" fill="white"/>
</clipPath>
</defs>
</svg>
